<?xml version="1.0" encoding="UTF-8"?>
<svg xmlns="http://www.w3.org/2000/svg" xmlns:xlink="http://www.w3.org/1999/xlink" viewBox="0 0 150 150" width="150px" height="150px">
<g id="surface315979">
<path style=" stroke:none;fill-rule:nonzero;fill:rgb(20.392157%,59.607846%,85.882354%);fill-opacity:1;" d="M 74.890625 3.164062 C 74.257812 3.1875 73.652344 3.40625 73.15625 3.792969 L 4.15625 57.632812 C 2.847656 58.652344 2.613281 60.539062 3.632812 61.847656 C 4.652344 63.152344 6.539062 63.386719 7.847656 62.367188 L 12 59.128906 L 12 138 C 12 139.65625 13.34375 141 15 141 L 56.496094 141 C 56.820312 141.054688 57.152344 141.054688 57.476562 141 L 92.496094 141 C 92.820312 141.054688 93.152344 141.054688 93.476562 141 L 135 141 C 136.65625 141 138 139.65625 138 138 L 138 59.128906 L 142.15625 62.367188 C 143 63.027344 144.132812 63.183594 145.128906 62.78125 C 146.121094 62.378906 146.824219 61.476562 146.972656 60.414062 C 147.121094 59.351562 146.691406 58.292969 145.84375 57.632812 L 123 39.808594 L 123 18 L 105 18 L 105 25.757812 L 76.84375 3.792969 C 76.289062 3.359375 75.59375 3.136719 74.886719 3.164062 Z M 75 9.964844 L 132 54.445312 L 132 135 L 96 135 L 96 78 L 54 78 L 54 135 L 18 135 L 18 54.445312 Z M 111 24 L 117 24 L 117 35.125 L 111 30.4375 Z M 60 84 L 90 84 L 90 135 L 60 135 Z M 60 84 "/>
</g>
</svg>
