<?xml version="1.0" standalone="no"?>
<!DOCTYPE svg PUBLIC "-//W3C//DTD SVG 20010904//EN"
 "http://www.w3.org/TR/2001/REC-SVG-20010904/DTD/svg10.dtd">
<svg version="1.0" xmlns="http://www.w3.org/2000/svg"
 width="512.000000pt" height="512.000000pt" viewBox="0 0 512.000000 512.000000"
 preserveAspectRatio="xMidYMid meet">

<g transform="translate(0.000000,512.000000) scale(0.100000,-0.100000)"
fill="#000000" stroke="none">
<path d="M2700 5113 c-19 -2 -83 -13 -143 -24 -464 -86 -884 -386 -1124 -801
l-45 -78 -49 0 c-174 0 -374 -87 -507 -222 -117 -119 -178 -235 -209 -398 -16
-85 -18 -89 -52 -105 -20 -9 -66 -37 -103 -62 -213 -143 -371 -366 -434 -609
-142 -556 196 -1120 761 -1271 96 -25 113 -26 408 -31 l307 -4 0 -454 0 -454
-163 0 -162 0 -25 52 c-30 65 -128 165 -193 197 -184 89 -381 58 -523 -84
-177 -176 -177 -453 1 -630 173 -174 438 -179 621 -12 31 28 65 73 85 112 l34
65 313 0 312 0 0 605 0 605 300 0 300 0 0 -318 0 -317 -52 -24 c-65 -30 -166
-129 -197 -194 -89 -185 -58 -381 84 -522 70 -71 146 -110 246 -127 186 -32
381 68 467 238 68 135 68 272 1 411 -33 66 -132 164 -196 194 l-53 24 0 317 0
318 300 0 300 0 0 -605 0 -605 313 0 312 0 24 -52 c30 -65 128 -164 194 -197
143 -69 278 -67 419 6 264 137 316 496 103 708 -141 142 -337 173 -522 84 -65
-31 -164 -132 -194 -196 l-24 -53 -162 0 -163 0 0 454 0 454 308 4 c291 5 312
6 404 31 361 96 641 362 751 712 135 432 -37 911 -421 1168 -37 25 -83 53
-103 62 l-36 17 -12 121 c-41 401 -217 758 -511 1040 -266 255 -585 404 -955
447 -85 9 -259 11 -335 3z m415 -318 c483 -100 869 -440 1023 -902 52 -154 67
-249 66 -430 l-1 -161 76 -28 c192 -69 319 -166 421 -320 115 -176 149 -403
89 -600 -68 -221 -235 -404 -446 -489 -142 -57 -75 -55 -1783 -55 -1391 0
-1580 2 -1648 16 -160 33 -270 92 -393 215 -75 74 -93 99 -137 190 -106 218
-108 437 -6 647 88 181 246 317 455 392 l92 33 -7 96 c-11 166 26 274 129 376
71 71 147 110 246 127 60 10 86 10 171 -5 56 -9 105 -14 108 -10 4 5 30 59 58
121 196 437 592 737 1058 801 97 14 334 6 429 -14z m-2285 -4215 c45 -23 80
-80 80 -130 0 -76 -74 -150 -151 -150 -46 0 -108 39 -130 82 -37 72 -14 151
57 194 48 29 92 30 144 4z m1800 0 c45 -23 80 -80 80 -130 0 -76 -74 -150
-151 -150 -46 0 -108 39 -130 82 -37 72 -14 151 57 194 48 29 92 30 144 4z
m1800 0 c45 -23 80 -80 80 -130 0 -76 -74 -150 -151 -150 -46 0 -108 39 -130
82 -37 72 -14 151 57 194 48 29 92 30 144 4z"/>
<path d="M2439 3609 c-289 -20 -561 -114 -809 -280 -119 -79 -331 -289 -418
-413 -34 -49 -61 -90 -60 -91 2 -2 59 -37 128 -79 115 -70 126 -75 138 -59 7
10 36 50 64 88 151 206 398 385 652 471 321 110 724 81 1031 -73 182 -92 375
-258 489 -421 l58 -83 37 22 c187 110 219 134 210 151 -33 61 -172 228 -265
318 -266 256 -628 422 -974 445 -47 3 -105 7 -130 9 -25 2 -93 0 -151 -5z"/>
<path d="M2460 3009 c-232 -19 -466 -128 -635 -297 -65 -65 -155 -181 -155
-198 1 -9 223 -147 244 -151 6 -2 26 20 45 47 137 203 413 324 679 298 207
-20 415 -138 523 -297 19 -28 39 -50 45 -48 21 4 243 142 244 151 0 5 -20 36
-44 70 -56 78 -182 200 -265 255 -131 89 -321 157 -461 167 -41 3 -86 6 -100
8 -14 1 -68 -1 -120 -5z"/>
<path d="M2500 2409 c-76 -9 -152 -40 -215 -89 -48 -37 -114 -115 -104 -124
12 -11 239 -146 245 -146 4 0 21 12 37 28 25 24 36 27 97 27 61 0 72 -3 97
-27 16 -16 33 -28 37 -28 6 0 233 135 245 146 10 9 -58 89 -110 128 -92 69
-210 100 -329 85z"/>
</g>
</svg>
