<?xml version="1.0" standalone="no"?>
<!DOCTYPE svg PUBLIC "-//W3C//DTD SVG 20010904//EN"
 "http://www.w3.org/TR/2001/REC-SVG-20010904/DTD/svg10.dtd">
<svg version="1.0" xmlns="http://www.w3.org/2000/svg"
 width="512.000000pt" height="512.000000pt" viewBox="0 0 512.000000 512.000000"
 preserveAspectRatio="xMidYMid meet">

<g transform="translate(0.000000,512.000000) scale(0.100000,-0.100000)"
fill="#000000" stroke="none">
<path d="M3458 4763 l-358 -358 -62 62 c-74 72 -100 86 -136 78 -34 -7 -2091
-2062 -2117 -2114 -26 -53 -30 -130 -10 -192 15 -45 38 -74 156 -194 l137
-140 -107 -111 c-84 -86 -112 -122 -124 -159 -36 -103 -13 -193 71 -278 l47
-47 -478 -478 -477 -477 177 -178 178 -177 477 477 478 478 47 -47 c85 -84
175 -107 278 -71 37 12 73 40 159 124 l111 107 140 -137 c120 -118 149 -141
194 -156 62 -20 139 -16 192 10 52 26 2107 2083 2114 2117 8 36 -6 62 -78 136
l-62 62 358 358 357 357 -653 653 -652 652 -357 -357z m892 -418 l535 -535
-298 -297 -297 -298 -537 537 -538 538 295 295 c162 162 297 295 300 295 3 0
246 -241 540 -535z m-715 -715 l710 -710 -995 -995 c-939 -939 -997 -995
-1030 -995 -33 0 -75 40 -712 678 -638 637 -678 679 -678 712 0 33 56 91 992
1027 546 546 995 993 998 993 3 0 325 -320 715 -710z m-2145 -2145 l295 -295
-101 -100 c-88 -87 -105 -100 -135 -100 -30 0 -57 23 -296 262 -241 241 -263
265 -263 297 0 29 13 47 97 132 53 55 99 99 102 99 4 0 139 -133 301 -295z
m-717 -827 l-418 -418 -57 57 -58 58 417 417 418 418 57 -57 58 -58 -417 -417z"/>
<path d="M3572 4527 c-94 -95 -172 -177 -172 -182 0 -6 79 -89 175 -185 l175
-175 180 180 180 180 -177 177 c-98 98 -180 178 -183 178 -3 0 -83 -78 -178
-173z m241 -125 l57 -58 -60 -59 -60 -59 -60 59 -60 59 57 58 c32 32 60 58 63
58 3 0 31 -26 63 -58z"/>
<path d="M4165 3930 l-180 -180 175 -175 c96 -96 179 -175 185 -175 6 0 89 79
185 175 l175 175 -180 180 -180 180 -180 -180z m240 -240 l-60 -60 -60 60 -59
60 59 60 60 60 60 -60 60 -60 -60 -60z"/>
<path d="M3225 3437 c-143 -39 -262 -72 -264 -74 -3 -2 25 -34 62 -71 37 -37
67 -72 67 -77 0 -6 -200 -210 -445 -455 l-445 -445 0 170 0 170 108 108 c78
78 114 107 132 107 52 0 99 21 133 60 39 43 53 90 42 147 -9 51 -78 119 -129
128 -109 21 -216 -80 -200 -188 5 -30 -3 -40 -125 -162 l-131 -130 0 -290 0
-291 -58 -57 c-52 -51 -62 -57 -100 -57 -85 0 -151 -50 -173 -133 -31 -116 84
-228 204 -196 77 21 127 92 127 183 0 27 20 51 143 174 l142 142 295 0 295 0
122 122 123 122 33 -32 33 -32 119 120 120 120 -115 115 c-63 63 -119 115
-125 115 -6 0 -62 -52 -125 -115 l-114 -115 29 -30 29 -30 -94 -95 -95 -95
-180 0 -180 0 360 360 c198 198 364 360 370 360 5 0 40 -30 77 -67 37 -37 69
-65 71 -62 2 2 34 119 72 259 37 140 70 263 72 273 3 10 0 17 -8 16 -8 -1
-131 -33 -274 -72z"/>
</g>
</svg>
